<?xml version="1.0" encoding="UTF-8"?><svg id="Logos" xmlns="http://www.w3.org/2000/svg" viewBox="0 0 1504.16 534.14"><defs><style>.cls-1{fill:#3d0a0a;}.cls-2{fill:#fff;}</style></defs><g id="Horizontal"><polygon class="cls-1" points="263.06 188.22 263.06 345.92 329.19 345.92 329.19 279.79 358.86 313.28 388.96 279.79 388.96 345.92 1241.11 345.92 1241.11 188.22 391.5 188.22 359.71 224.44 325.8 188.22 263.06 188.22"/><path class="cls-2" d="M516.41,297.62h-14.21v-22.9c0-4.74,0-11.77.16-17.29-.95,5.53-2.53,12.48-3.79,17.29l-6,22.9h-14.61l-6.08-22.9c-1.26-4.74-2.84-11.77-3.71-17.29.16,5.53.16,12.55.16,17.29v22.9h-14.21v-54.49h22.19l9.24,40.67,9.24-40.67h21.64v54.49Z"/><path class="cls-2" d="M526.99,297.62v-54.49h14.21v54.49h-14.21Z"/><path class="cls-2" d="M585.34,297.62l-19.82-36.01c.47,5.53.47,10.34.47,13.5v22.5h-14.21v-54.49h17.69l20.69,37.59c-.4-5.53-.47-11.13-.47-14.29v-23.29h14.21v54.49h-18.56Z"/><path class="cls-2" d="M641.17,254.19v43.43h-14.21v-43.43h-17.69v-11.05h49.59v11.05h-17.69Z"/><path class="cls-2" d="M727.8,261.06l.08.79h-14.21l-.16-.79c-1.18-5.84-4.74-8.61-10.5-8.61-6.79,0-11.92,5.69-11.92,17.45,0,13.74,5.69,18.4,12,18.4,5.53,0,9.08-3.4,10.27-9.4l.16-.79h14.21l-.08.79c-1.34,13.11-11.37,19.82-25.03,19.82-14.61,0-26.37-9.48-26.37-27.95s12.16-28.74,26.93-28.74c15.56,0,23.53,8.29,24.64,19.03Z"/><path class="cls-2" d="M786.47,297.62h-14.21v-21.16h-21.79v21.16h-14.21v-54.49h14.21v22.27h21.79v-22.27h14.21v54.49Z"/><path class="cls-2" d="M850.74,270.38c0,17.45-10.9,28.35-27.87,28.35s-27.87-10.9-27.87-28.35,10.9-28.35,27.87-28.35,27.87,10.82,27.87,28.35ZM836.22,270.38c0-11.61-5.13-17.93-13.34-17.93s-13.35,6.32-13.35,17.93,5.13,17.92,13.35,17.92,13.34-6.4,13.34-17.92Z"/><path class="cls-2" d="M908.78,261.06l.08.79h-14.21l-.16-.79c-1.18-5.84-4.74-8.61-10.5-8.61-6.79,0-11.92,5.69-11.92,17.45,0,13.74,5.69,18.4,12,18.4,5.53,0,9.08-3.4,10.27-9.4l.16-.79h14.21l-.08.79c-1.34,13.11-11.37,19.82-25.03,19.82-14.61,0-26.37-9.48-26.37-27.95s12.16-28.74,26.93-28.74c15.56,0,23.53,8.29,24.64,19.03Z"/><path class="cls-2" d="M993.43,297.62h-14.21v-22.9c0-4.74,0-11.77.16-17.29-.95,5.53-2.53,12.48-3.79,17.29l-6,22.9h-14.61l-6.08-22.9c-1.26-4.74-2.84-11.77-3.71-17.29.16,5.53.16,12.55.16,17.29v22.9h-14.21v-54.49h22.19l9.24,40.67,9.24-40.67h21.64v54.49Z"/><path class="cls-2" d="M1045.79,297.62h-41.77v-54.49h40.98v11.05h-26.77v10.58h25.19v11.05h-25.19v10.74h27.56v11.05Z"/><path class="cls-2" d="M1105.09,269.67c0,17.06-10.42,26.22-23.06,27.64-2.76.32-4.03.32-6.95.32h-20.61v-54.49h20.61c2.92,0,4.19,0,6.95.32,12.63,1.42,23.06,9.16,23.06,26.22ZM1090.25,269.9c0-9.71-4.9-14.92-12-15.56-1.82-.16-3.08-.16-5.13-.16h-4.42v32.38h4.42c2.05,0,3.32,0,5.13-.16,7.11-.63,12-6.79,12-16.5Z"/><path class="cls-2" d="M1113.62,297.62v-54.49h14.21v54.49h-14.21Z"/><path class="cls-2" d="M1152.08,283.48l-4.58,14.13h-15.08l19.66-54.49h17.37l19.66,54.49h-15.48l-4.58-14.13h-16.98ZM1155.55,272.43h10.11l-5.05-16.74-5.05,16.74Z"/></g></svg>